<?xml version="1.0" encoding="UTF-8"?>
<!DOCTYPE svg PUBLIC "-//W3C//DTD SVG 1.1//EN" "http://www.w3.org/Graphics/SVG/1.1/DTD/svg11.dtd">
<svg version="1.2" width="211.93mm" height="211.93mm" viewBox="0 0 21193 21193" preserveAspectRatio="xMidYMid" fill-rule="evenodd" stroke-width="28.222" stroke-linejoin="round" xmlns="http://www.w3.org/2000/svg" xmlns:ooo="http://xml.openoffice.org/svg/export" xmlns:xlink="http://www.w3.org/1999/xlink" xmlns:presentation="http://sun.com/xmlns/staroffice/presentation" xmlns:smil="http://www.w3.org/2001/SMIL20/" xmlns:anim="urn:oasis:names:tc:opendocument:xmlns:animation:1.0" xml:space="preserve">
 <defs class="ClipPathGroup">
  <clipPath id="presentation_clip_path" clipPathUnits="userSpaceOnUse">
   <rect x="0" y="0" width="21193" height="21193"/>
  </clipPath>
  <clipPath id="presentation_clip_path_shrink" clipPathUnits="userSpaceOnUse">
   <rect x="21" y="21" width="21151" height="21151"/>
  </clipPath>
 </defs>
 <defs class="TextShapeIndex">
  <g ooo:slide="id1" ooo:id-list="id3 id4 id5 id6 id7 id8 id9 id10 id11 id12 id13 id14 id15 id16 id17 id18 id19 id20 id21 id22 id23"/>
 </defs>
 <defs class="EmbeddedBulletChars">
  <g id="bullet-char-template-57356" transform="scale(0.00048828125,-0.00048828125)">
   <path d="M 580,1141 L 1163,571 580,0 -4,571 580,1141 Z"/>
  </g>
  <g id="bullet-char-template-57354" transform="scale(0.00048828125,-0.00048828125)">
   <path d="M 8,1128 L 1137,1128 1137,0 8,0 8,1128 Z"/>
  </g>
  <g id="bullet-char-template-10146" transform="scale(0.00048828125,-0.00048828125)">
   <path d="M 174,0 L 602,739 174,1481 1456,739 174,0 Z M 1358,739 L 309,1346 659,739 1358,739 Z"/>
  </g>
  <g id="bullet-char-template-10132" transform="scale(0.00048828125,-0.00048828125)">
   <path d="M 2015,739 L 1276,0 717,0 1260,543 174,543 174,936 1260,936 717,1481 1274,1481 2015,739 Z"/>
  </g>
  <g id="bullet-char-template-10007" transform="scale(0.00048828125,-0.00048828125)">
   <path d="M 0,-2 C -7,14 -16,27 -25,37 L 356,567 C 262,823 215,952 215,954 215,979 228,992 255,992 264,992 276,990 289,987 310,991 331,999 354,1012 L 381,999 492,748 772,1049 836,1024 860,1049 C 881,1039 901,1025 922,1006 886,937 835,863 770,784 769,783 710,716 594,584 L 774,223 C 774,196 753,168 711,139 L 727,119 C 717,90 699,76 672,76 641,76 570,178 457,381 L 164,-76 C 142,-110 111,-127 72,-127 30,-127 9,-110 8,-76 1,-67 -2,-52 -2,-32 -2,-23 -1,-13 0,-2 Z"/>
  </g>
  <g id="bullet-char-template-10004" transform="scale(0.00048828125,-0.00048828125)">
   <path d="M 285,-33 C 182,-33 111,30 74,156 52,228 41,333 41,471 41,549 55,616 82,672 116,743 169,778 240,778 293,778 328,747 346,684 L 369,508 C 377,444 397,411 428,410 L 1163,1116 C 1174,1127 1196,1133 1229,1133 1271,1133 1292,1118 1292,1087 L 1292,965 C 1292,929 1282,901 1262,881 L 442,47 C 390,-6 338,-33 285,-33 Z"/>
  </g>
  <g id="bullet-char-template-9679" transform="scale(0.00048828125,-0.00048828125)">
   <path d="M 813,0 C 632,0 489,54 383,161 276,268 223,411 223,592 223,773 276,916 383,1023 489,1130 632,1184 813,1184 992,1184 1136,1130 1245,1023 1353,916 1407,772 1407,592 1407,412 1353,268 1245,161 1136,54 992,0 813,0 Z"/>
  </g>
  <g id="bullet-char-template-8226" transform="scale(0.00048828125,-0.00048828125)">
   <path d="M 346,457 C 273,457 209,483 155,535 101,586 74,649 74,723 74,796 101,859 155,911 209,963 273,989 346,989 419,989 480,963 531,910 582,859 608,796 608,723 608,648 583,586 532,535 482,483 420,457 346,457 Z"/>
  </g>
  <g id="bullet-char-template-8211" transform="scale(0.00048828125,-0.00048828125)">
   <path d="M -4,459 L 1135,459 1135,606 -4,606 -4,459 Z"/>
  </g>
  <g id="bullet-char-template-61548" transform="scale(0.00048828125,-0.00048828125)">
   <path d="M 173,740 C 173,903 231,1043 346,1159 462,1274 601,1332 765,1332 928,1332 1067,1274 1183,1159 1299,1043 1357,903 1357,740 1357,577 1299,437 1183,322 1067,206 928,148 765,148 601,148 462,206 346,322 231,437 173,577 173,740 Z"/>
  </g>
 </defs>
 <g>
  <g id="id2" class="Master_Slide">
   <g id="bg-id2" class="Background"/>
   <g id="bo-id2" class="BackgroundObjects"/>
  </g>
 </g>
 <g class="SlideGroup">
  <g>
   <g id="container-id1">
    <g id="id1" class="Slide" clip-path="url(#presentation_clip_path)">
     <g class="Page">
      <g class="com.sun.star.drawing.ClosedBezierShape">
       <g id="id3">
        <rect class="BoundingBox" stroke="none" fill="none" x="5025" y="9608" width="2590" height="805"/>
        <path fill="rgb(0,0,0)" stroke="none" d="M 7180,10361 L 7180,10361 C 6552,10110 5907,9902 5251,9739 L 5251,9739 C 5758,9679 6269,9649 6780,9649 7036,9649 7293,9656 7548,9671 L 7180,10361 Z"/>
        <path fill="none" stroke="rgb(0,0,0)" stroke-width="81" stroke-linejoin="miter" stroke-linecap="round" d="M 7180,10361 L 7180,10361 C 6552,10110 5907,9902 5251,9739 L 5251,9739 C 5758,9679 6269,9649 6780,9649 7036,9649 7293,9656 7548,9671 L 7180,10361 Z"/>
       </g>
      </g>
      <g class="com.sun.star.drawing.ClosedBezierShape">
       <g id="id4">
        <rect class="BoundingBox" stroke="none" fill="none" x="7413" y="6762" width="2725" height="2915"/>
        <path fill="rgb(0,0,0)" stroke="none" d="M 7611,9611 L 7611,9611 C 7406,8852 7461,8586 7461,7792 7461,7463 7479,7137 7514,6811 L 7514,6811 C 8423,6990 9296,7350 10094,7874 10173,7925 7611,9611 7611,9611 Z"/>
        <path fill="none" stroke="rgb(0,0,0)" stroke-width="81" stroke-linejoin="miter" stroke-linecap="round" d="M 7611,9611 L 7611,9611 C 7406,8852 7461,8586 7461,7792 7461,7463 7479,7137 7514,6811 L 7514,6811 C 8423,6990 9296,7350 10094,7874 10173,7925 7611,9611 7611,9611 Z"/>
       </g>
      </g>
      <g class="com.sun.star.drawing.ClosedBezierShape">
       <g id="id5">
        <rect class="BoundingBox" stroke="none" fill="none" x="10327" y="5447" width="835" height="2332"/>
        <path fill="rgb(0,0,0)" stroke="none" d="M 10401,7699 L 10401,7699 C 10379,7544 10368,7388 10368,7232 10368,6659 10516,6097 10797,5599 L 10797,5599 C 10802,6113 10909,6621 11111,7094 L 10401,7699 Z"/>
        <path fill="none" stroke="rgb(0,0,0)" stroke-width="81" stroke-linejoin="miter" stroke-linecap="round" d="M 10401,7699 L 10401,7699 C 10379,7544 10368,7388 10368,7232 10368,6659 10516,6097 10797,5599 L 10797,5599 C 10802,6113 10909,6621 11111,7094 L 10401,7699 Z"/>
       </g>
      </g>
      <g class="com.sun.star.drawing.ClosedBezierShape">
       <g id="id6">
        <rect class="BoundingBox" stroke="none" fill="none" x="9670" y="6883" width="854" height="1129"/>
        <path fill="rgb(0,0,0)" stroke="none" d="M 9792,6961 L 9792,6961 C 9738,7190 9711,7427 9711,7666 9711,7765 9716,7863 9725,7961 L 9725,7961 C 9963,7907 10191,7799 10399,7641 10420,7626 10440,7610 10461,7593 L 9792,6961 Z"/>
        <path fill="none" stroke="rgb(0,0,0)" stroke-width="81" stroke-linejoin="miter" stroke-linecap="round" d="M 9792,6961 L 9792,6961 C 9738,7190 9711,7427 9711,7666 9711,7765 9716,7863 9725,7961 L 9725,7961 C 9963,7907 10191,7799 10399,7641 10420,7626 10440,7610 10461,7593 L 9792,6961 Z"/>
       </g>
      </g>
      <g class="com.sun.star.drawing.ClosedBezierShape">
       <g id="id7">
        <rect class="BoundingBox" stroke="none" fill="none" x="7046" y="8969" width="948" height="1093"/>
        <path fill="rgb(0,0,0)" stroke="none" d="M 7094,9035 L 7094,9035 C 7119,9269 7170,9502 7249,9727 7281,9821 7318,9912 7359,10002 L 7359,10002 C 7565,9873 7745,9696 7891,9479 7905,9457 7920,9435 7933,9413 L 7094,9035 Z"/>
        <path fill="none" stroke="rgb(0,0,0)" stroke-width="81" stroke-linejoin="miter" stroke-linecap="round" d="M 7094,9035 L 7094,9035 C 7119,9269 7170,9502 7249,9727 7281,9821 7318,9912 7359,10002 L 7359,10002 C 7565,9873 7745,9696 7891,9479 7905,9457 7920,9435 7933,9413 L 7094,9035 Z"/>
       </g>
      </g>
      <g class="com.sun.star.drawing.ClosedBezierShape">
       <g id="id8">
        <rect class="BoundingBox" stroke="none" fill="none" x="8980" y="7584" width="3184" height="3158"/>
        <path fill="none" stroke="rgb(0,0,0)" stroke-width="260" stroke-linejoin="miter" stroke-linecap="round" d="M 12032,9163 C 12032,9417 11965,9667 11837,9887 11709,10107 11525,10290 11303,10417 11081,10545 10829,10610 10572,10610 10315,10610 10064,10545 9841,10417 9619,10290 9434,10107 9306,9887 9178,9667 9111,9417 9111,9163 9111,8908 9178,8658 9306,8438 9434,8218 9619,8036 9841,7909 10064,7781 10315,7715 10572,7715 10829,7715 11081,7781 11303,7909 11525,8036 11709,8218 11837,8438 11965,8658 12032,8908 12032,9163 Z"/>
       </g>
      </g>
      <g class="com.sun.star.drawing.OpenBezierShape">
       <g id="id9">
        <rect class="BoundingBox" stroke="none" fill="none" x="7480" y="12481" width="1947" height="1625"/>
        <path fill="none" stroke="rgb(0,0,0)" stroke-width="260" stroke-linejoin="miter" stroke-linecap="round" d="M 7611,12612 L 7611,12660 7611,12660 C 7611,12891 7667,13117 7774,13317 7882,13517 8035,13682 8222,13799 8407,13914 8617,13974 8832,13974 8992,13974 9149,13942 9295,13876"/>
       </g>
      </g>
      <g class="com.sun.star.drawing.OpenBezierShape">
       <g id="id10">
        <rect class="BoundingBox" stroke="none" fill="none" x="13877" y="12352" width="1300" height="1846"/>
        <path fill="none" stroke="rgb(0,0,0)" stroke-width="260" stroke-linejoin="miter" stroke-linecap="round" d="M 14007,14053 L 14007,14053 C 14057,14062 14108,14066 14159,14066 14315,14066 14467,14025 14602,13947 14737,13870 14849,13758 14926,13623 15004,13488 15045,13336 15045,13180 15045,13025 15004,12872 14926,12738 14869,12639 14794,12552 14704,12482"/>
       </g>
      </g>
      <g class="com.sun.star.drawing.OpenBezierShape">
       <g id="id11">
        <rect class="BoundingBox" stroke="none" fill="none" x="11874" y="13255" width="2274" height="1969"/>
        <path fill="none" stroke="rgb(0,0,0)" stroke-width="260" stroke-linejoin="miter" stroke-linecap="round" d="M 12004,14116 L 12004,14116 C 12010,14282 12055,14444 12139,14588 12227,14742 12354,14869 12507,14957 12660,15045 12834,15092 13011,15092 13187,15092 13360,15045 13513,14957 13667,14869 13793,14742 13882,14588 13970,14436 14016,14264 14016,14086 14016,13909 13970,13735 13882,13583 13841,13511 13791,13445 13733,13385"/>
       </g>
      </g>
      <g class="com.sun.star.drawing.OpenBezierShape">
       <g id="id12">
        <rect class="BoundingBox" stroke="none" fill="none" x="9134" y="13412" width="2853" height="1708"/>
        <path fill="none" stroke="rgb(0,0,0)" stroke-width="260" stroke-linejoin="miter" stroke-linecap="round" d="M 9272,13542 L 9272,13542 C 9267,13587 9265,13632 9265,13677 L 9265,13677 9265,13677 C 9265,13907 9326,14133 9441,14333 9555,14532 9721,14697 9920,14813 10120,14927 10345,14988 10576,14988 10806,14988 11031,14927 11230,14813 11430,14697 11595,14532 11710,14333 11777,14217 11825,14092 11855,13962"/>
       </g>
      </g>
      <g class="com.sun.star.drawing.OpenBezierShape">
       <g id="id13">
        <rect class="BoundingBox" stroke="none" fill="none" x="11023" y="14807" width="1565" height="644"/>
        <path fill="none" stroke="rgb(0,0,0)" stroke-width="260" stroke-linejoin="miter" stroke-linecap="round" d="M 11153,14937 L 11153,14937 C 11228,15043 11326,15131 11439,15196 11577,15277 11736,15319 11896,15319 12057,15319 12214,15277 12354,15196 12389,15176 12423,15153 12456,15128"/>
       </g>
      </g>
      <g class="com.sun.star.drawing.OpenBezierShape">
       <g id="id14">
        <rect class="BoundingBox" stroke="none" fill="none" x="8393" y="11709" width="2602" height="2065"/>
        <path fill="none" stroke="rgb(0,0,0)" stroke-width="260" stroke-linejoin="miter" stroke-linecap="round" d="M 8542,11839 L 8542,11839 C 8530,11919 8524,11999 8524,12080 8524,12355 8595,12623 8733,12861 8870,13099 9067,13296 9305,13433 9541,13569 9810,13642 10084,13642 L 10084,13642 10085,13642 C 10359,13642 10628,13570 10864,13434"/>
       </g>
      </g>
      <g class="com.sun.star.drawing.OpenBezierShape">
       <g id="id15">
        <rect class="BoundingBox" stroke="none" fill="none" x="13795" y="10032" width="1450" height="2841"/>
        <path fill="none" stroke="rgb(0,0,0)" stroke-width="260" stroke-linejoin="miter" stroke-linecap="round" d="M 13925,12741 L 13925,12741 C 14104,12719 14278,12661 14435,12571 14640,12451 14812,12280 14931,12073 15050,11867 15113,11633 15113,11394 15113,11157 15050,10922 14931,10715 14812,10511 14640,10339 14435,10220 14399,10199 14362,10181 14325,10163"/>
       </g>
      </g>
      <g class="com.sun.star.drawing.OpenBezierShape">
       <g id="id16">
        <rect class="BoundingBox" stroke="none" fill="none" x="13044" y="8296" width="1325" height="2840"/>
        <path fill="none" stroke="rgb(0,0,0)" stroke-width="260" stroke-linejoin="miter" stroke-linecap="round" d="M 13174,11004 C 13184,11002 13192,11001 13202,10999 L 13202,10999 C 13433,10942 13645,10826 13817,10661 13989,10497 14115,10290 14182,10061 14250,9832 14255,9590 14198,9358 14142,9126 14026,8914 13861,8742 13731,8606 13574,8499 13400,8427"/>
       </g>
      </g>
      <g class="com.sun.star.drawing.OpenBezierShape">
       <g id="id17">
        <rect class="BoundingBox" stroke="none" fill="none" x="10731" y="11138" width="3126" height="3040"/>
        <path fill="none" stroke="rgb(0,0,0)" stroke-width="260" stroke-linejoin="miter" stroke-linecap="round" d="M 10862,12557 C 10862,12819 10929,13076 11055,13302 11179,13529 11360,13716 11578,13847 11796,13978 12042,14046 12294,14046 12546,14046 12792,13978 13010,13847 13228,13716 13408,13528 13534,13302 13660,13075 13725,12819 13725,12557 13725,12296 13660,12040 13534,11813 13408,11587 13229,11399 13010,11268"/>
       </g>
      </g>
      <g class="com.sun.star.drawing.OpenBezierShape">
       <g id="id18">
        <rect class="BoundingBox" stroke="none" fill="none" x="7189" y="8981" width="2812" height="3007"/>
        <path fill="none" stroke="rgb(0,0,0)" stroke-width="260" stroke-linejoin="miter" stroke-linecap="round" d="M 9084,9111 C 8846,9111 8203,9206 7998,9325 7791,9444 7620,9615 7500,9822 7380,10029 7319,10263 7319,10501 7319,10740 7381,10972 7500,11179 7620,11384 7791,11556 7998,11675 8203,11794 8438,11857 8676,11857 8914,11857 9148,11794 9355,11675 9562,11556 9733,11384 9852,11179 9858,11168 9863,11158 9869,11148"/>
       </g>
      </g>
      <g class="com.sun.star.drawing.OpenBezierShape">
       <g id="id19">
        <rect class="BoundingBox" stroke="none" fill="none" x="9715" y="9522" width="3335" height="3205"/>
        <path fill="none" stroke="rgb(0,0,0)" stroke-width="260" stroke-linejoin="miter" stroke-linecap="round" d="M 9945,10515 L 9945,10515 C 9879,10689 9846,10872 9846,11058 9846,11327 9917,11593 10052,11827 10186,12060 10380,12254 10614,12389 10847,12524 11111,12595 11381,12595 11651,12595 11916,12524 12150,12389 12384,12254 12578,12060 12712,11827 12847,11593 12918,11328 12918,11058 12918,10789 12847,10524 12712,10291 12578,10057 12384,9863 12150,9728 12102,9701 12053,9675 12002,9653"/>
       </g>
      </g>
      <g class="com.sun.star.drawing.OpenBezierShape">
       <g id="id20">
        <rect class="BoundingBox" stroke="none" fill="none" x="10730" y="6731" width="2763" height="2949"/>
        <path fill="none" stroke="rgb(0,0,0)" stroke-width="260" stroke-linejoin="miter" stroke-linecap="round" d="M 12278,9548 C 12511,9500 12728,9391 12905,9233 13084,9075 13217,8872 13293,8646 13369,8420 13381,8178 13333,7944 13285,7710 13177,7495 13019,7316 12860,7139 12658,7005 12432,6930 12207,6855 11964,6841 11731,6889 11498,6937 11281,7046 11102,7204 10923,7362 10937,7386 10861,7611"/>
       </g>
      </g>
      <g class="com.sun.star.drawing.OpenBezierShape">
       <g id="id21">
        <rect class="BoundingBox" stroke="none" fill="none" x="6381" y="9948" width="2262" height="2794"/>
        <path fill="none" stroke="rgb(0,0,0)" stroke-width="260" stroke-linejoin="miter" stroke-linecap="round" d="M 7190,10079 C 6983,10198 6812,10369 6692,10576 6572,10783 6511,11017 6511,11255 6511,11494 6573,11726 6692,11933 6812,12138 6983,12310 7190,12429 7395,12548 7630,12611 7868,12611 8106,12611 8304,12480 8511,12361"/>
       </g>
      </g>
      <g class="com.sun.star.drawing.ClosedBezierShape">
       <g id="id22">
        <rect class="BoundingBox" stroke="none" fill="none" x="8313" y="8295" width="946" height="865"/>
        <path fill="rgb(0,0,0)" stroke="none" d="M 8361,8361 L 8361,8361 C 8386,8595 8438,8828 8516,9053 8549,9147 8611,9111 8611,9111 8817,8982 9012,9022 9158,8805 9172,8783 9187,8761 9200,8739 L 8361,8361 Z"/>
        <path fill="none" stroke="rgb(0,0,0)" stroke-width="81" stroke-linejoin="miter" stroke-linecap="round" d="M 8361,8361 L 8361,8361 C 8386,8595 8438,8828 8516,9053 8549,9147 8611,9111 8611,9111 8817,8982 9012,9022 9158,8805 9172,8783 9187,8761 9200,8739 L 8361,8361 Z"/>
       </g>
      </g>
      <g class="com.sun.star.drawing.CustomShape">
       <g id="id23">
        <rect class="BoundingBox" stroke="none" fill="none" x="10361" y="7360" width="502" height="503"/>
        <path fill="rgb(0,0,0)" stroke="none" d="M 10862,7611 C 10862,7655 10850,7699 10828,7737 10806,7775 10775,7806 10737,7828 10699,7850 10655,7862 10612,7862 10568,7862 10524,7850 10486,7828 10448,7806 10417,7775 10395,7737 10373,7699 10361,7655 10361,7611 10361,7568 10373,7524 10395,7486 10417,7448 10448,7417 10486,7395 10524,7373 10568,7361 10612,7361 10655,7361 10699,7373 10737,7395 10775,7417 10806,7448 10828,7486 10850,7524 10862,7568 10862,7611 L 10862,7611 Z"/>
       </g>
      </g>
     </g>
    </g>
   </g>
  </g>
 </g>
</svg>