<?xml version="1.0" encoding="UTF-8"?>
<!DOCTYPE svg PUBLIC "-//W3C//DTD SVG 1.1//EN" "http://www.w3.org/Graphics/SVG/1.1/DTD/svg11.dtd">
<svg version="1.2" width="211.93mm" height="211.93mm" viewBox="0 0 21193 21193" preserveAspectRatio="xMidYMid" fill-rule="evenodd" stroke-width="28.222" stroke-linejoin="round" xmlns="http://www.w3.org/2000/svg" xmlns:ooo="http://xml.openoffice.org/svg/export" xmlns:xlink="http://www.w3.org/1999/xlink" xmlns:presentation="http://sun.com/xmlns/staroffice/presentation" xmlns:smil="http://www.w3.org/2001/SMIL20/" xmlns:anim="urn:oasis:names:tc:opendocument:xmlns:animation:1.0" xml:space="preserve">
 <defs class="ClipPathGroup">
  <clipPath id="presentation_clip_path" clipPathUnits="userSpaceOnUse">
   <rect x="0" y="0" width="21193" height="21193"/>
  </clipPath>
  <clipPath id="presentation_clip_path_shrink" clipPathUnits="userSpaceOnUse">
   <rect x="21" y="21" width="21151" height="21151"/>
  </clipPath>
 </defs>
 <defs class="TextShapeIndex">
  <g ooo:slide="id1" ooo:id-list="id3 id4 id5 id6 id7 id8 id9 id10 id11 id12 id13 id14 id15 id16 id17 id18 id19 id20 id21"/>
 </defs>
 <defs class="EmbeddedBulletChars">
  <g id="bullet-char-template-57356" transform="scale(0.00048828125,-0.00048828125)">
   <path d="M 580,1141 L 1163,571 580,0 -4,571 580,1141 Z"/>
  </g>
  <g id="bullet-char-template-57354" transform="scale(0.00048828125,-0.00048828125)">
   <path d="M 8,1128 L 1137,1128 1137,0 8,0 8,1128 Z"/>
  </g>
  <g id="bullet-char-template-10146" transform="scale(0.00048828125,-0.00048828125)">
   <path d="M 174,0 L 602,739 174,1481 1456,739 174,0 Z M 1358,739 L 309,1346 659,739 1358,739 Z"/>
  </g>
  <g id="bullet-char-template-10132" transform="scale(0.00048828125,-0.00048828125)">
   <path d="M 2015,739 L 1276,0 717,0 1260,543 174,543 174,936 1260,936 717,1481 1274,1481 2015,739 Z"/>
  </g>
  <g id="bullet-char-template-10007" transform="scale(0.00048828125,-0.00048828125)">
   <path d="M 0,-2 C -7,14 -16,27 -25,37 L 356,567 C 262,823 215,952 215,954 215,979 228,992 255,992 264,992 276,990 289,987 310,991 331,999 354,1012 L 381,999 492,748 772,1049 836,1024 860,1049 C 881,1039 901,1025 922,1006 886,937 835,863 770,784 769,783 710,716 594,584 L 774,223 C 774,196 753,168 711,139 L 727,119 C 717,90 699,76 672,76 641,76 570,178 457,381 L 164,-76 C 142,-110 111,-127 72,-127 30,-127 9,-110 8,-76 1,-67 -2,-52 -2,-32 -2,-23 -1,-13 0,-2 Z"/>
  </g>
  <g id="bullet-char-template-10004" transform="scale(0.00048828125,-0.00048828125)">
   <path d="M 285,-33 C 182,-33 111,30 74,156 52,228 41,333 41,471 41,549 55,616 82,672 116,743 169,778 240,778 293,778 328,747 346,684 L 369,508 C 377,444 397,411 428,410 L 1163,1116 C 1174,1127 1196,1133 1229,1133 1271,1133 1292,1118 1292,1087 L 1292,965 C 1292,929 1282,901 1262,881 L 442,47 C 390,-6 338,-33 285,-33 Z"/>
  </g>
  <g id="bullet-char-template-9679" transform="scale(0.00048828125,-0.00048828125)">
   <path d="M 813,0 C 632,0 489,54 383,161 276,268 223,411 223,592 223,773 276,916 383,1023 489,1130 632,1184 813,1184 992,1184 1136,1130 1245,1023 1353,916 1407,772 1407,592 1407,412 1353,268 1245,161 1136,54 992,0 813,0 Z"/>
  </g>
  <g id="bullet-char-template-8226" transform="scale(0.00048828125,-0.00048828125)">
   <path d="M 346,457 C 273,457 209,483 155,535 101,586 74,649 74,723 74,796 101,859 155,911 209,963 273,989 346,989 419,989 480,963 531,910 582,859 608,796 608,723 608,648 583,586 532,535 482,483 420,457 346,457 Z"/>
  </g>
  <g id="bullet-char-template-8211" transform="scale(0.00048828125,-0.00048828125)">
   <path d="M -4,459 L 1135,459 1135,606 -4,606 -4,459 Z"/>
  </g>
  <g id="bullet-char-template-61548" transform="scale(0.00048828125,-0.00048828125)">
   <path d="M 173,740 C 173,903 231,1043 346,1159 462,1274 601,1332 765,1332 928,1332 1067,1274 1183,1159 1299,1043 1357,903 1357,740 1357,577 1299,437 1183,322 1067,206 928,148 765,148 601,148 462,206 346,322 231,437 173,577 173,740 Z"/>
  </g>
 </defs>
 <g>
  <g id="id2" class="Master_Slide">
   <g id="bg-id2" class="Background"/>
   <g id="bo-id2" class="BackgroundObjects"/>
  </g>
 </g>
 <g class="SlideGroup">
  <g>
   <g id="container-id1">
    <g id="id1" class="Slide" clip-path="url(#presentation_clip_path)">
     <g class="Page">
      <g class="com.sun.star.drawing.ClosedBezierShape">
       <g id="id3">
        <rect class="BoundingBox" stroke="none" fill="none" x="5025" y="9608" width="2590" height="805"/>
        <path fill="rgb(48,186,120)" stroke="none" d="M 7180,10361 L 7180,10361 C 6552,10110 5907,9902 5251,9739 L 5251,9739 C 5758,9679 6269,9649 6780,9649 7036,9649 7293,9656 7548,9671 L 7180,10361 Z"/>
        <path fill="none" stroke="rgb(0,0,0)" stroke-width="81" stroke-linejoin="miter" stroke-linecap="round" d="M 7180,10361 L 7180,10361 C 6552,10110 5907,9902 5251,9739 L 5251,9739 C 5758,9679 6269,9649 6780,9649 7036,9649 7293,9656 7548,9671 L 7180,10361 Z"/>
       </g>
      </g>
      <g class="com.sun.star.drawing.ClosedBezierShape">
       <g id="id4">
        <rect class="BoundingBox" stroke="none" fill="none" x="7420" y="6762" width="2978" height="3444"/>
        <path fill="rgb(48,186,120)" stroke="none" d="M 7770,10133 L 7770,10133 C 7565,9374 7461,8586 7461,7792 7461,7463 7479,7137 7514,6811 L 7514,6811 C 8423,6990 9296,7350 10094,7874 10173,7925 10251,7979 10329,8034 L 7770,10133 Z"/>
        <path fill="none" stroke="rgb(0,0,0)" stroke-width="81" stroke-linejoin="miter" stroke-linecap="round" d="M 7770,10133 L 7770,10133 C 7565,9374 7461,8586 7461,7792 7461,7463 7479,7137 7514,6811 L 7514,6811 C 8423,6990 9296,7350 10094,7874 10173,7925 10251,7979 10329,8034 L 7770,10133 Z"/>
       </g>
      </g>
      <g class="com.sun.star.drawing.ClosedBezierShape">
       <g id="id5">
        <rect class="BoundingBox" stroke="none" fill="none" x="10327" y="5447" width="835" height="2332"/>
        <path fill="rgb(48,186,120)" stroke="none" d="M 10401,7699 L 10401,7699 C 10379,7544 10368,7388 10368,7232 10368,6659 10516,6097 10797,5599 L 10797,5599 C 10802,6113 10909,6621 11111,7094 L 10401,7699 Z"/>
        <path fill="none" stroke="rgb(0,0,0)" stroke-width="81" stroke-linejoin="miter" stroke-linecap="round" d="M 10401,7699 L 10401,7699 C 10379,7544 10368,7388 10368,7232 10368,6659 10516,6097 10797,5599 L 10797,5599 C 10802,6113 10909,6621 11111,7094 L 10401,7699 Z"/>
       </g>
      </g>
      <g class="com.sun.star.drawing.ClosedBezierShape">
       <g id="id6">
        <rect class="BoundingBox" stroke="none" fill="none" x="9670" y="6883" width="854" height="1129"/>
        <path fill="rgb(48,186,120)" stroke="none" d="M 9792,6961 L 9792,6961 C 9738,7190 9711,7427 9711,7666 9711,7765 9716,7863 9725,7961 L 9725,7961 C 9963,7907 10191,7799 10399,7641 10420,7626 10440,7610 10461,7593 L 9792,6961 Z"/>
        <path fill="none" stroke="rgb(0,0,0)" stroke-width="81" stroke-linejoin="miter" stroke-linecap="round" d="M 9792,6961 L 9792,6961 C 9738,7190 9711,7427 9711,7666 9711,7765 9716,7863 9725,7961 L 9725,7961 C 9963,7907 10191,7799 10399,7641 10420,7626 10440,7610 10461,7593 L 9792,6961 Z"/>
       </g>
      </g>
      <g class="com.sun.star.drawing.ClosedBezierShape">
       <g id="id7">
        <rect class="BoundingBox" stroke="none" fill="none" x="7046" y="8969" width="948" height="1093"/>
        <path fill="rgb(48,186,120)" stroke="none" d="M 7094,9035 L 7094,9035 C 7119,9269 7170,9502 7249,9727 7281,9821 7318,9912 7359,10002 L 7359,10002 C 7565,9873 7745,9696 7891,9479 7905,9457 7920,9435 7933,9413 L 7094,9035 Z"/>
        <path fill="none" stroke="rgb(0,0,0)" stroke-width="81" stroke-linejoin="miter" stroke-linecap="round" d="M 7094,9035 L 7094,9035 C 7119,9269 7170,9502 7249,9727 7281,9821 7318,9912 7359,10002 L 7359,10002 C 7565,9873 7745,9696 7891,9479 7905,9457 7920,9435 7933,9413 L 7094,9035 Z"/>
       </g>
      </g>
      <g class="com.sun.star.drawing.ClosedBezierShape">
       <g id="id8">
        <rect class="BoundingBox" stroke="none" fill="none" x="10970" y="13969" width="1583" height="1584"/>
        <path fill="rgb(249,30,97)" stroke="none" d="M 12511,14761 C 12511,14892 12477,15022 12411,15136 12345,15250 12250,15344 12136,15410 12022,15476 11893,15511 11761,15511 11629,15511 11500,15476 11386,15410 11272,15344 11177,15250 11111,15136 11045,15022 11011,14892 11011,14761 11011,14629 11045,14499 11111,14385 11177,14271 11272,14177 11386,14111 11500,14045 11629,14010 11761,14010 11893,14010 12022,14045 12136,14111 12250,14177 12345,14271 12411,14385 12477,14499 12511,14629 12511,14761 Z"/>
        <path fill="none" stroke="rgb(0,0,0)" stroke-width="81" stroke-linejoin="miter" stroke-linecap="round" d="M 12511,14761 C 12511,14892 12477,15022 12411,15136 12345,15250 12250,15344 12136,15410 12022,15476 11893,15511 11761,15511 11629,15511 11500,15476 11386,15410 11272,15344 11177,15250 11111,15136 11045,15022 11011,14892 11011,14761 11011,14629 11045,14499 11111,14385 11177,14271 11272,14177 11386,14111 11500,14045 11629,14010 11761,14010 11893,14010 12022,14045 12136,14111 12250,14177 12345,14271 12411,14385 12477,14499 12511,14629 12511,14761 Z"/>
       </g>
      </g>
      <g class="com.sun.star.drawing.ClosedBezierShape">
       <g id="id9">
        <rect class="BoundingBox" stroke="none" fill="none" x="13019" y="12070" width="2041" height="2041"/>
        <path fill="rgb(249,30,97)" stroke="none" d="M 15018,13090 C 15018,13262 14973,13431 14887,13580 14801,13728 14678,13852 14529,13938 14380,14024 14211,14069 14039,14069 13867,14069 13698,14024 13550,13938 13401,13852 13278,13728 13191,13580 13105,13431 13060,13262 13060,13090 13060,12918 13105,12749 13191,12600 13278,12451 13401,12328 13550,12242 13698,12156 13867,12111 14039,12111 14211,12111 14380,12156 14529,12242 14678,12328 14801,12451 14887,12600 14973,12749 15018,12918 15018,13090 Z"/>
        <path fill="none" stroke="rgb(0,0,0)" stroke-width="81" stroke-linejoin="miter" stroke-linecap="round" d="M 15018,13090 C 15018,13262 14973,13431 14887,13580 14801,13728 14678,13852 14529,13938 14380,14024 14211,14069 14039,14069 13867,14069 13698,14024 13550,13938 13401,13852 13278,13728 13191,13580 13105,13431 13060,13262 13060,13090 13060,12918 13105,12749 13191,12600 13278,12451 13401,12328 13550,12242 13698,12156 13867,12111 14039,12111 14211,12111 14380,12156 14529,12242 14678,12328 14801,12451 14887,12600 14973,12749 15018,12918 15018,13090 Z"/>
       </g>
      </g>
      <g class="com.sun.star.drawing.ClosedBezierShape">
       <g id="id10">
        <rect class="BoundingBox" stroke="none" fill="none" x="11814" y="12913" width="2339" height="2340"/>
        <path fill="rgb(249,30,97)" stroke="none" d="M 14111,14082 C 14111,14281 14059,14476 13960,14647 13861,14818 13719,14960 13548,15060 13376,15159 13181,15211 12983,15211 12785,15211 12590,15159 12418,15060 12247,14960 12105,14818 12006,14647 11907,14476 11855,14281 11855,14082 11855,13884 11907,13689 12006,13518 12105,13346 12247,13204 12418,13105 12590,13006 12785,12954 12983,12954 13181,12954 13376,13006 13548,13105 13719,13204 13861,13346 13960,13518 14059,13689 14111,13884 14111,14082 Z"/>
        <path fill="none" stroke="rgb(0,0,0)" stroke-width="81" stroke-linejoin="miter" stroke-linecap="round" d="M 14111,14082 C 14111,14281 14059,14476 13960,14647 13861,14818 13719,14960 13548,15060 13376,15159 13181,15211 12983,15211 12785,15211 12590,15159 12418,15060 12247,14960 12105,14818 12006,14647 11907,14476 11855,14281 11855,14082 11855,13884 11907,13689 12006,13518 12105,13346 12247,13204 12418,13105 12590,13006 12785,12954 12983,12954 13181,12954 13376,13006 13548,13105 13719,13204 13861,13346 13960,13518 14059,13689 14111,13884 14111,14082 Z"/>
       </g>
      </g>
      <g class="com.sun.star.drawing.ClosedBezierShape">
       <g id="id11">
        <rect class="BoundingBox" stroke="none" fill="none" x="12270" y="9912" width="3040" height="3041"/>
        <path fill="rgb(249,30,97)" stroke="none" d="M 15268,11432 C 15268,11692 15200,11947 15070,12172 14940,12396 14754,12583 14529,12713 14304,12843 14049,12911 13790,12911 13530,12911 13275,12843 13050,12713 12825,12583 12639,12396 12509,12172 12379,11947 12311,11692 12311,11432 12311,11172 12379,10917 12509,10692 12639,10467 12825,10281 13050,10151 13275,10021 13530,9953 13790,9953 14049,9953 14304,10021 14529,10151 14754,10281 14940,10467 15070,10692 15200,10917 15268,11172 15268,11432 Z"/>
        <path fill="none" stroke="rgb(0,0,0)" stroke-width="81" stroke-linejoin="miter" stroke-linecap="round" d="M 15268,11432 C 15268,11692 15200,11947 15070,12172 14940,12396 14754,12583 14529,12713 14304,12843 14049,12911 13790,12911 13530,12911 13275,12843 13050,12713 12825,12583 12639,12396 12509,12172 12379,11947 12311,11692 12311,11432 12311,11172 12379,10917 12509,10692 12639,10467 12825,10281 13050,10151 13275,10021 13530,9953 13790,9953 14049,9953 14304,10021 14529,10151 14754,10281 14940,10467 15070,10692 15200,10917 15268,11172 15268,11432 Z"/>
       </g>
      </g>
      <g class="com.sun.star.drawing.ClosedBezierShape">
       <g id="id12">
        <rect class="BoundingBox" stroke="none" fill="none" x="9013" y="12020" width="3040" height="3041"/>
        <path fill="rgb(249,30,97)" stroke="none" d="M 12011,13540 C 12011,13800 11943,14055 11813,14280 11683,14504 11497,14691 11272,14821 11047,14951 10792,15019 10533,15019 10273,15019 10018,14951 9793,14821 9568,14691 9382,14504 9252,14280 9122,14055 9054,13800 9054,13540 9054,13280 9122,13025 9252,12800 9382,12575 9568,12389 9793,12259 10018,12129 10273,12061 10533,12061 10792,12061 11047,12129 11272,12259 11497,12389 11683,12575 11813,12800 11943,13025 12011,13280 12011,13540 Z"/>
        <path fill="none" stroke="rgb(0,0,0)" stroke-width="81" stroke-linejoin="miter" stroke-linecap="round" d="M 12011,13540 C 12011,13800 11943,14055 11813,14280 11683,14504 11497,14691 11272,14821 11047,14951 10792,15019 10533,15019 10273,15019 10018,14951 9793,14821 9568,14691 9382,14504 9252,14280 9122,14055 9054,13800 9054,13540 9054,13280 9122,13025 9252,12800 9382,12575 9568,12389 9793,12259 10018,12129 10273,12061 10533,12061 10792,12061 11047,12129 11272,12259 11497,12389 11683,12575 11813,12800 11943,13025 12011,13280 12011,13540 Z"/>
       </g>
      </g>
      <g class="com.sun.star.drawing.ClosedBezierShape">
       <g id="id13">
        <rect class="BoundingBox" stroke="none" fill="none" x="10570" y="11062" width="3040" height="3041"/>
        <path fill="rgb(249,30,97)" stroke="none" d="M 13568,12582 C 13568,12842 13500,13097 13370,13322 13240,13546 13054,13733 12829,13863 12604,13993 12349,14061 12090,14061 11830,14061 11575,13993 11350,13863 11125,13733 10939,13546 10809,13322 10679,13097 10611,12842 10611,12582 10611,12322 10679,12067 10809,11842 10939,11617 11125,11431 11350,11301 11575,11171 11830,11103 12090,11103 12349,11103 12604,11171 12829,11301 13054,11431 13240,11617 13370,11842 13500,12067 13568,12322 13568,12582 Z"/>
        <path fill="none" stroke="rgb(0,0,0)" stroke-width="81" stroke-linejoin="miter" stroke-linecap="round" d="M 13568,12582 C 13568,12842 13500,13097 13370,13322 13240,13546 13054,13733 12829,13863 12604,13993 12349,14061 12090,14061 11830,14061 11575,13993 11350,13863 11125,13733 10939,13546 10809,13322 10679,13097 10611,12842 10611,12582 10611,12322 10679,12067 10809,11842 10939,11617 11125,11431 11350,11301 11575,11171 11830,11103 12090,11103 12349,11103 12604,11171 12829,11301 13054,11431 13240,11617 13370,11842 13500,12067 13568,12322 13568,12582 Z"/>
       </g>
      </g>
      <g class="com.sun.star.drawing.ClosedBezierShape">
       <g id="id14">
        <rect class="BoundingBox" stroke="none" fill="none" x="11363" y="8112" width="3040" height="3041"/>
        <path fill="rgb(249,30,97)" stroke="none" d="M 14361,9632 C 14361,9892 14293,10147 14163,10372 14033,10596 13847,10783 13622,10913 13397,11043 13142,11111 12883,11111 12623,11111 12368,11043 12143,10913 11918,10783 11732,10596 11602,10372 11472,10147 11404,9892 11404,9632 11404,9372 11472,9117 11602,8892 11732,8667 11918,8481 12143,8351 12368,8221 12623,8153 12883,8153 13142,8153 13397,8221 13622,8351 13847,8481 14033,8667 14163,8892 14293,9117 14361,9372 14361,9632 Z"/>
        <path fill="none" stroke="rgb(0,0,0)" stroke-width="81" stroke-linejoin="miter" stroke-linecap="round" d="M 14361,9632 C 14361,9892 14293,10147 14163,10372 14033,10596 13847,10783 13622,10913 13397,11043 13142,11111 12883,11111 12623,11111 12368,11043 12143,10913 11918,10783 11732,10596 11602,10372 11472,10147 11404,9892 11404,9632 11404,9372 11472,9117 11602,8892 11732,8667 11918,8481 12143,8351 12368,8221 12623,8153 12883,8153 13142,8153 13397,8221 13622,8351 13847,8481 14033,8667 14163,8892 14293,9117 14361,9372 14361,9632 Z"/>
       </g>
      </g>
      <g class="com.sun.star.drawing.ClosedBezierShape">
       <g id="id15">
        <rect class="BoundingBox" stroke="none" fill="none" x="7413" y="11170" width="3040" height="3041"/>
        <path fill="rgb(249,30,97)" stroke="none" d="M 10411,12690 C 10411,12950 10343,13205 10213,13430 10083,13654 9897,13841 9672,13971 9447,14101 9192,14169 8933,14169 8673,14169 8418,14101 8193,13971 7968,13841 7782,13654 7652,13430 7522,13205 7454,12950 7454,12690 7454,12430 7522,12175 7652,11950 7782,11725 7968,11539 8193,11409 8418,11279 8673,11211 8933,11211 9192,11211 9447,11279 9672,11409 9897,11539 10083,11725 10213,11950 10343,12175 10411,12430 10411,12690 Z"/>
        <path fill="none" stroke="rgb(0,0,0)" stroke-width="81" stroke-linejoin="miter" stroke-linecap="round" d="M 10411,12690 C 10411,12950 10343,13205 10213,13430 10083,13654 9897,13841 9672,13971 9447,14101 9192,14169 8933,14169 8673,14169 8418,14101 8193,13971 7968,13841 7782,13654 7652,13430 7522,13205 7454,12950 7454,12690 7454,12430 7522,12175 7652,11950 7782,11725 7968,11539 8193,11409 8418,11279 8673,11211 8933,11211 9192,11211 9447,11279 9672,11409 9897,11539 10083,11725 10213,11950 10343,12175 10411,12430 10411,12690 Z"/>
       </g>
      </g>
      <g class="com.sun.star.drawing.ClosedBezierShape">
       <g id="id16">
        <rect class="BoundingBox" stroke="none" fill="none" x="6570" y="9820" width="3040" height="3041"/>
        <path fill="rgb(249,30,97)" stroke="none" d="M 9568,11340 C 9568,11600 9500,11855 9370,12080 9240,12304 9054,12491 8829,12621 8604,12751 8349,12819 8090,12819 7830,12819 7575,12751 7350,12621 7125,12491 6939,12304 6809,12080 6679,11855 6611,11600 6611,11340 6611,11080 6679,10825 6809,10600 6939,10375 7125,10189 7350,10059 7575,9929 7830,9861 8090,9861 8349,9861 8604,9929 8829,10059 9054,10189 9240,10375 9370,10600 9500,10825 9568,11080 9568,11340 Z"/>
        <path fill="none" stroke="rgb(0,0,0)" stroke-width="81" stroke-linejoin="miter" stroke-linecap="round" d="M 9568,11340 C 9568,11600 9500,11855 9370,12080 9240,12304 9054,12491 8829,12621 8604,12751 8349,12819 8090,12819 7830,12819 7575,12751 7350,12621 7125,12491 6939,12304 6809,12080 6679,11855 6611,11600 6611,11340 6611,11080 6679,10825 6809,10600 6939,10375 7125,10189 7350,10059 7575,9929 7830,9861 8090,9861 8349,9861 8604,9929 8829,10059 9054,10189 9240,10375 9370,10600 9500,10825 9568,11080 9568,11340 Z"/>
       </g>
      </g>
      <g class="com.sun.star.drawing.ClosedBezierShape">
       <g id="id17">
        <rect class="BoundingBox" stroke="none" fill="none" x="8470" y="10562" width="3040" height="3041"/>
        <path fill="rgb(249,30,97)" stroke="none" d="M 11468,12082 C 11468,12342 11400,12597 11270,12822 11140,13046 10954,13233 10729,13363 10504,13493 10249,13561 9990,13561 9730,13561 9475,13493 9250,13363 9025,13233 8839,13046 8709,12822 8579,12597 8511,12342 8511,12082 8511,11822 8579,11567 8709,11342 8839,11117 9025,10931 9250,10801 9475,10671 9730,10603 9990,10603 10249,10603 10504,10671 10729,10801 10954,10931 11140,11117 11270,11342 11400,11567 11468,11822 11468,12082 Z"/>
        <path fill="none" stroke="rgb(0,0,0)" stroke-width="81" stroke-linejoin="miter" stroke-linecap="round" d="M 11468,12082 C 11468,12342 11400,12597 11270,12822 11140,13046 10954,13233 10729,13363 10504,13493 10249,13561 9990,13561 9730,13561 9475,13493 9250,13363 9025,13233 8839,13046 8709,12822 8579,12597 8511,12342 8511,12082 8511,11822 8579,11567 8709,11342 8839,11117 9025,10931 9250,10801 9475,10671 9730,10603 9990,10603 10249,10603 10504,10671 10729,10801 10954,10931 11140,11117 11270,11342 11400,11567 11468,11822 11468,12082 Z"/>
       </g>
      </g>
      <g class="com.sun.star.drawing.ClosedBezierShape">
       <g id="id18">
        <rect class="BoundingBox" stroke="none" fill="none" x="9970" y="9670" width="3040" height="3041"/>
        <path fill="rgb(249,30,97)" stroke="none" d="M 12968,11190 C 12968,11450 12900,11705 12770,11930 12640,12154 12454,12341 12229,12471 12004,12601 11749,12669 11490,12669 11230,12669 10975,12601 10750,12471 10525,12341 10339,12154 10209,11930 10079,11705 10011,11450 10011,11190 10011,10930 10079,10675 10209,10450 10339,10225 10525,10039 10750,9909 10975,9779 11230,9711 11490,9711 11749,9711 12004,9779 12229,9909 12454,10039 12640,10225 12770,10450 12900,10675 12968,10930 12968,11190 Z"/>
        <path fill="none" stroke="rgb(0,0,0)" stroke-width="81" stroke-linejoin="miter" stroke-linecap="round" d="M 12968,11190 C 12968,11450 12900,11705 12770,11930 12640,12154 12454,12341 12229,12471 12004,12601 11749,12669 11490,12669 11230,12669 10975,12601 10750,12471 10525,12341 10339,12154 10209,11930 10079,11705 10011,11450 10011,11190 10011,10930 10079,10675 10209,10450 10339,10225 10525,10039 10750,9909 10975,9779 11230,9711 11490,9711 11749,9711 12004,9779 12229,9909 12454,10039 12640,10225 12770,10450 12900,10675 12968,10930 12968,11190 Z"/>
       </g>
      </g>
      <g class="com.sun.star.drawing.ClosedBezierShape">
       <g id="id19">
        <rect class="BoundingBox" stroke="none" fill="none" x="7213" y="8970" width="3040" height="3041"/>
        <path fill="rgb(249,30,97)" stroke="none" d="M 10211,10490 C 10211,10750 10143,11005 10013,11230 9883,11454 9697,11641 9472,11771 9247,11901 8992,11969 8733,11969 8473,11969 8218,11901 7993,11771 7768,11641 7582,11454 7452,11230 7322,11005 7254,10750 7254,10490 7254,10230 7322,9975 7452,9750 7582,9525 7768,9339 7993,9209 8218,9079 8473,9011 8733,9011 8992,9011 9247,9079 9472,9209 9697,9339 9883,9525 10013,9750 10143,9975 10211,10230 10211,10490 Z"/>
        <path fill="none" stroke="rgb(0,0,0)" stroke-width="81" stroke-linejoin="miter" stroke-linecap="round" d="M 10211,10490 C 10211,10750 10143,11005 10013,11230 9883,11454 9697,11641 9472,11771 9247,11901 8992,11969 8733,11969 8473,11969 8218,11901 7993,11771 7768,11641 7582,11454 7452,11230 7322,11005 7254,10750 7254,10490 7254,10230 7322,9975 7452,9750 7582,9525 7768,9339 7993,9209 8218,9079 8473,9011 8733,9011 8992,9011 9247,9079 9472,9209 9697,9339 9883,9525 10013,9750 10143,9975 10211,10230 10211,10490 Z"/>
       </g>
      </g>
      <g class="com.sun.star.drawing.ClosedBezierShape">
       <g id="id20">
        <rect class="BoundingBox" stroke="none" fill="none" x="10470" y="6720" width="3040" height="3041"/>
        <path fill="rgb(249,30,97)" stroke="none" d="M 13468,8240 C 13468,8500 13400,8755 13270,8980 13140,9204 12954,9391 12729,9521 12504,9651 12249,9719 11990,9719 11730,9719 11475,9651 11250,9521 11025,9391 10839,9204 10709,8980 10579,8755 10511,8500 10511,8240 10511,7980 10579,7725 10709,7500 10839,7275 11025,7089 11250,6959 11475,6829 11730,6761 11990,6761 12249,6761 12504,6829 12729,6959 12954,7089 13140,7275 13270,7500 13400,7725 13468,7980 13468,8240 Z"/>
        <path fill="none" stroke="rgb(0,0,0)" stroke-width="81" stroke-linejoin="miter" stroke-linecap="round" d="M 13468,8240 C 13468,8500 13400,8755 13270,8980 13140,9204 12954,9391 12729,9521 12504,9651 12249,9719 11990,9719 11730,9719 11475,9651 11250,9521 11025,9391 10839,9204 10709,8980 10579,8755 10511,8500 10511,8240 10511,7980 10579,7725 10709,7500 10839,7275 11025,7089 11250,6959 11475,6829 11730,6761 11990,6761 12249,6761 12504,6829 12729,6959 12954,7089 13140,7275 13270,7500 13400,7725 13468,7980 13468,8240 Z"/>
       </g>
      </g>
      <g class="com.sun.star.drawing.ClosedBezierShape">
       <g id="id21">
        <rect class="BoundingBox" stroke="none" fill="none" x="9070" y="7612" width="3040" height="3041"/>
        <path fill="rgb(249,30,97)" stroke="none" d="M 12068,9132 C 12068,9392 12000,9647 11870,9872 11740,10096 11554,10283 11329,10413 11104,10543 10849,10611 10590,10611 10330,10611 10075,10543 9850,10413 9625,10283 9439,10096 9309,9872 9179,9647 9111,9392 9111,9132 9111,8872 9179,8617 9309,8392 9439,8167 9625,7981 9850,7851 10075,7721 10330,7653 10590,7653 10849,7653 11104,7721 11329,7851 11554,7981 11740,8167 11870,8392 12000,8617 12068,8872 12068,9132 Z"/>
        <path fill="none" stroke="rgb(0,0,0)" stroke-width="81" stroke-linejoin="miter" stroke-linecap="round" d="M 12068,9132 C 12068,9392 12000,9647 11870,9872 11740,10096 11554,10283 11329,10413 11104,10543 10849,10611 10590,10611 10330,10611 10075,10543 9850,10413 9625,10283 9439,10096 9309,9872 9179,9647 9111,9392 9111,9132 9111,8872 9179,8617 9309,8392 9439,8167 9625,7981 9850,7851 10075,7721 10330,7653 10590,7653 10849,7653 11104,7721 11329,7851 11554,7981 11740,8167 11870,8392 12000,8617 12068,8872 12068,9132 Z"/>
       </g>
      </g>
     </g>
    </g>
   </g>
  </g>
 </g>
</svg>